<svg id="mic" class="responsive" version="1.1" xmlns="http://www.w3.org/2000/svg" xmlns:xlink="http://www.w3.org/1999/xlink" x="0px" y="0px" width="512px" height="512px" viewBox="0 0 512 512" style="enable-background:new 0 0 512 512;" xml:space="preserve">

    <style>
        svg#mic.responsive { width: 100%; }
    </style>

    <style id="embeded-media-queries">
        @media screen and (max-width: 64px) {
            svg#mic.responsive g#medium,
            svg#mic.responsive g#large {
               display: none;
            }
        }

        @media screen and (min-width: 65px) and (max-width: 128px) {
            svg#mic.responsive g#small,
            svg#mic.responsive g#large {
               display: none;
            }
        }

        @media screen and (min-width: 129px) {
            svg#mic.responsive g#small,
            svg#mic.responsive g#medium {
               display: none;
            }
        }
    </style>

    <g id="small" transform="translate(64,0)" width="384px" height="512px">
        <path d="M192,256c35.375,0,64-28.656,64-64V64c0-35.344-28.625-64-64-64s-64,28.656-64,64v128C128,227.344,156.625,256,192,256z"
                        />
        <path d="M256,448h-32v-67.25c90.625-15.312,160-93.844,160-188.75v-31c0-17.688-14.312-32-32-32s-32,14.312-32,32v31
                    c0,70.594-57.375,128-128,128S64,262.594,64,192v-31c0-17.688-14.312-32-32-32S0,143.312,0,161v31
                    c0,94.906,69.375,173.438,160,188.75V448h-32c-35.375,0-64,28.656-64,64h256C320,476.656,291.375,448,256,448z"/>
    </g>

    <g id="medium" transform="translate(128,0)" width="256px" height="512px">
        <path d="M256,512H0c0-12.852,10.422-23.273,23.281-23.273H112V383.594C58.391,379.484,16,334.641,16,280v-96c0-4.422,3.578-8,8-8
            s8,3.578,8,8v96c0,48.523,39.469,88,88,88h16c48.531,0,88-39.477,88-88v-96c0-4.422,3.578-8,8-8s8,3.578,8,8v96
            c0,54.641-42.391,99.484-96,103.594v105.133h88.719C245.578,488.727,256,499.148,256,512z M48,240V80c0-44,36-80,80-80s80,36,80,80
            v160H48z M176,192c0-8.844-7.156-16-16-16s-16,7.156-16,16s7.156,16,16,16S176,200.844,176,192z M176,144c0-8.844-7.156-16-16-16
            s-16,7.156-16,16s7.156,16,16,16S176,152.844,176,144z M144,96c0,8.844,7.156,16,16,16s16-7.156,16-16s-7.156-16-16-16
            S144,87.156,144,96z M112,48c0,8.844,7.156,16,16,16s16-7.156,16-16s-7.156-16-16-16S112,39.156,112,48z M80,96
            c0,8.844,7.156,16,16,16s16-7.156,16-16s-7.156-16-16-16S80,87.156,80,96z M80,144c0,8.844,7.156,16,16,16s16-7.156,16-16
            s-7.156-16-16-16S80,135.156,80,144z M80,192c0,8.844,7.156,16,16,16s16-7.156,16-16s-7.156-16-16-16S80,183.156,80,192z M48,256
            v16c0,44,36,80,80,80s80-36,80-80v-16H48z"/>
    </g>

    <g id="large" transform="translate(132,0)" width="248px" height="512px">
        <path d="M248,512h-16h-16H32H16H0c0-8.836,7.164-16,16-16h88c4.422,0,8-3.578,8-8V376h8v-8c-44.109,0-80-34.992-80-78v-50
                c-6.625,0-12-5.371-12-12s5.375-12,12-12h8v8h12c2.211,0,4,1.789,4,4s-1.789,4-4,4H48v58c0,38.598,32.297,70,72,70h8
                c39.703,0,72-31.402,72-70v-58h-12c-2.211,0-4-1.789-4-4s1.789-4,4-4h12v-8h8c6.625,0,12,5.371,12,12s-5.375,12-12,12v50
                c0,43.008-35.891,78-80,78v8h8v112c0,4.422,3.578,8,8,8h88C240.836,496,248,503.164,248,512z M112,228c0,6.625,5.375,12,12,12
                s12-5.375,12-12s-5.375-12-12-12S112,221.375,112,228z M60,216h-4V68c0-37.398,30.602-68,68-68s68,30.602,68,68v148h-4
                c-5.219,0-9.609,3.352-11.266,8h-33.141c-1.859-9.117-9.93-16-19.594-16s-17.734,6.883-19.594,16H71.266
                C69.609,219.352,65.219,216,60,216z M168,52c0,2.211,1.789,4,4,4s4-1.789,4-4s-1.789-4-4-4S168,49.789,168,52z M168,68
                c0,2.211,1.789,4,4,4s4-1.789,4-4s-1.789-4-4-4S168,65.789,168,68z M168,84c0,2.211,1.789,4,4,4s4-1.789,4-4s-1.789-4-4-4
                S168,81.789,168,84z M168,100c0,2.211,1.789,4,4,4s4-1.789,4-4s-1.789-4-4-4S168,97.789,168,100z M168,116c0,2.211,1.789,4,4,4
                s4-1.789,4-4s-1.789-4-4-4S168,113.789,168,116z M168,132c0,2.211,1.789,4,4,4s4-1.789,4-4s-1.789-4-4-4S168,129.789,168,132z
                 M168,148c0,2.211,1.789,4,4,4s4-1.789,4-4s-1.789-4-4-4S168,145.789,168,148z M168,164c0,2.211,1.789,4,4,4s4-1.789,4-4
                s-1.789-4-4-4S168,161.789,168,164z M168,180c0,2.211,1.789,4,4,4s4-1.789,4-4s-1.789-4-4-4S168,177.789,168,180z M168,196
                c0,2.211,1.789,4,4,4s4-1.789,4-4s-1.789-4-4-4S168,193.789,168,196z M152,36c0,2.211,1.789,4,4,4s4-1.789,4-4s-1.789-4-4-4
                S152,33.789,152,36z M152,52c0,2.211,1.789,4,4,4s4-1.789,4-4s-1.789-4-4-4S152,49.789,152,52z M152,68c0,2.211,1.789,4,4,4
                s4-1.789,4-4s-1.789-4-4-4S152,65.789,152,68z M152,84c0,2.211,1.789,4,4,4s4-1.789,4-4s-1.789-4-4-4S152,81.789,152,84z M152,100
                c0,2.211,1.789,4,4,4s4-1.789,4-4s-1.789-4-4-4S152,97.789,152,100z M152,116c0,2.211,1.789,4,4,4s4-1.789,4-4s-1.789-4-4-4
                S152,113.789,152,116z M152,132c0,2.211,1.789,4,4,4s4-1.789,4-4s-1.789-4-4-4S152,129.789,152,132z M152,148c0,2.211,1.789,4,4,4
                s4-1.789,4-4s-1.789-4-4-4S152,145.789,152,148z M152,164c0,2.211,1.789,4,4,4s4-1.789,4-4s-1.789-4-4-4S152,161.789,152,164z
                 M152,180c0,2.211,1.789,4,4,4s4-1.789,4-4s-1.789-4-4-4S152,177.789,152,180z M152,196c0,2.211,1.789,4,4,4s4-1.789,4-4
                s-1.789-4-4-4S152,193.789,152,196z M136,20c0,2.211,1.789,4,4,4s4-1.789,4-4s-1.789-4-4-4S136,17.789,136,20z M136,36
                c0,2.211,1.789,4,4,4s4-1.789,4-4s-1.789-4-4-4S136,33.789,136,36z M136,52c0,2.211,1.789,4,4,4s4-1.789,4-4s-1.789-4-4-4
                S136,49.789,136,52z M136,68c0,2.211,1.789,4,4,4s4-1.789,4-4s-1.789-4-4-4S136,65.789,136,68z M136,84c0,2.211,1.789,4,4,4
                s4-1.789,4-4s-1.789-4-4-4S136,81.789,136,84z M136,100c0,2.211,1.789,4,4,4s4-1.789,4-4s-1.789-4-4-4S136,97.789,136,100z
                 M136,116c0,2.211,1.789,4,4,4s4-1.789,4-4s-1.789-4-4-4S136,113.789,136,116z M136,132c0,2.211,1.789,4,4,4s4-1.789,4-4
                s-1.789-4-4-4S136,129.789,136,132z M136,148c0,2.211,1.789,4,4,4s4-1.789,4-4s-1.789-4-4-4S136,145.789,136,148z M136,164
                c0,2.211,1.789,4,4,4s4-1.789,4-4s-1.789-4-4-4S136,161.789,136,164z M136,180c0,2.211,1.789,4,4,4s4-1.789,4-4s-1.789-4-4-4
                S136,177.789,136,180z M136,196c0,2.211,1.789,4,4,4s4-1.789,4-4s-1.789-4-4-4S136,193.789,136,196z M120,20c0,2.211,1.789,4,4,4
                s4-1.789,4-4s-1.789-4-4-4S120,17.789,120,20z M120,36c0,2.211,1.789,4,4,4s4-1.789,4-4s-1.789-4-4-4S120,33.789,120,36z M120,52
                c0,2.211,1.789,4,4,4s4-1.789,4-4s-1.789-4-4-4S120,49.789,120,52z M120,68c0,2.211,1.789,4,4,4s4-1.789,4-4s-1.789-4-4-4
                S120,65.789,120,68z M120,84c0,2.211,1.789,4,4,4s4-1.789,4-4s-1.789-4-4-4S120,81.789,120,84z M120,100c0,2.211,1.789,4,4,4
                s4-1.789,4-4s-1.789-4-4-4S120,97.789,120,100z M120,116c0,2.211,1.789,4,4,4s4-1.789,4-4s-1.789-4-4-4S120,113.789,120,116z
                 M120,132c0,2.211,1.789,4,4,4s4-1.789,4-4s-1.789-4-4-4S120,129.789,120,132z M120,148c0,2.211,1.789,4,4,4s4-1.789,4-4
                s-1.789-4-4-4S120,145.789,120,148z M120,164c0,2.211,1.789,4,4,4s4-1.789,4-4s-1.789-4-4-4S120,161.789,120,164z M120,180
                c0,2.211,1.789,4,4,4s4-1.789,4-4s-1.789-4-4-4S120,177.789,120,180z M120,196c0,2.211,1.789,4,4,4s4-1.789,4-4s-1.789-4-4-4
                S120,193.789,120,196z M104,20c0,2.211,1.789,4,4,4s4-1.789,4-4s-1.789-4-4-4S104,17.789,104,20z M104,36c0,2.211,1.789,4,4,4
                s4-1.789,4-4s-1.789-4-4-4S104,33.789,104,36z M104,52c0,2.211,1.789,4,4,4s4-1.789,4-4s-1.789-4-4-4S104,49.789,104,52z M104,68
                c0,2.211,1.789,4,4,4s4-1.789,4-4s-1.789-4-4-4S104,65.789,104,68z M104,84c0,2.211,1.789,4,4,4s4-1.789,4-4s-1.789-4-4-4
                S104,81.789,104,84z M104,100c0,2.211,1.789,4,4,4s4-1.789,4-4s-1.789-4-4-4S104,97.789,104,100z M104,116c0,2.211,1.789,4,4,4
                s4-1.789,4-4s-1.789-4-4-4S104,113.789,104,116z M104,132c0,2.211,1.789,4,4,4s4-1.789,4-4s-1.789-4-4-4S104,129.789,104,132z
                 M104,148c0,2.211,1.789,4,4,4s4-1.789,4-4s-1.789-4-4-4S104,145.789,104,148z M104,164c0,2.211,1.789,4,4,4s4-1.789,4-4
                s-1.789-4-4-4S104,161.789,104,164z M104,180c0,2.211,1.789,4,4,4s4-1.789,4-4s-1.789-4-4-4S104,177.789,104,180z M104,196
                c0,2.211,1.789,4,4,4s4-1.789,4-4s-1.789-4-4-4S104,193.789,104,196z M88,36c0,2.211,1.789,4,4,4s4-1.789,4-4s-1.789-4-4-4
                S88,33.789,88,36z M88,52c0,2.211,1.789,4,4,4s4-1.789,4-4s-1.789-4-4-4S88,49.789,88,52z M88,68c0,2.211,1.789,4,4,4s4-1.789,4-4
                s-1.789-4-4-4S88,65.789,88,68z M88,84c0,2.211,1.789,4,4,4s4-1.789,4-4s-1.789-4-4-4S88,81.789,88,84z M88,100
                c0,2.211,1.789,4,4,4s4-1.789,4-4s-1.789-4-4-4S88,97.789,88,100z M88,116c0,2.211,1.789,4,4,4s4-1.789,4-4s-1.789-4-4-4
                S88,113.789,88,116z M88,132c0,2.211,1.789,4,4,4s4-1.789,4-4s-1.789-4-4-4S88,129.789,88,132z M88,148c0,2.211,1.789,4,4,4
                s4-1.789,4-4s-1.789-4-4-4S88,145.789,88,148z M88,164c0,2.211,1.789,4,4,4s4-1.789,4-4s-1.789-4-4-4S88,161.789,88,164z M88,180
                c0,2.211,1.789,4,4,4s4-1.789,4-4s-1.789-4-4-4S88,177.789,88,180z M88,196c0,2.211,1.789,4,4,4s4-1.789,4-4s-1.789-4-4-4
                S88,193.789,88,196z M72,52c0,2.211,1.789,4,4,4s4-1.789,4-4s-1.789-4-4-4S72,49.789,72,52z M72,68c0,2.211,1.789,4,4,4
                s4-1.789,4-4s-1.789-4-4-4S72,65.789,72,68z M72,84c0,2.211,1.789,4,4,4s4-1.789,4-4s-1.789-4-4-4S72,81.789,72,84z M72,100
                c0,2.211,1.789,4,4,4s4-1.789,4-4s-1.789-4-4-4S72,97.789,72,100z M72,116c0,2.211,1.789,4,4,4s4-1.789,4-4s-1.789-4-4-4
                S72,113.789,72,116z M72,132c0,2.211,1.789,4,4,4s4-1.789,4-4s-1.789-4-4-4S72,129.789,72,132z M72,148c0,2.211,1.789,4,4,4
                s4-1.789,4-4s-1.789-4-4-4S72,145.789,72,148z M72,164c0,2.211,1.789,4,4,4s4-1.789,4-4s-1.789-4-4-4S72,161.789,72,164z M72,180
                c0,2.211,1.789,4,4,4s4-1.789,4-4s-1.789-4-4-4S72,177.789,72,180z M72,196c0,2.211,1.789,4,4,4s4-1.789,4-4s-1.789-4-4-4
                S72,193.789,72,196z M188,240h4v44c0,37.398-30.602,68-68,68s-68-30.602-68-68v-44h4c5.219,0,9.609-3.352,11.266-8h33.141
                c1.859,9.117,9.93,16,19.594,16s17.734-6.883,19.594-16h33.141C178.391,236.648,182.781,240,188,240z M128,324c0-2.211-1.789-4-4-4
                s-4,1.789-4,4s1.789,4,4,4S128,326.211,128,324z"/>
    </g>

</svg>
