<svg version="1.1" xmlns="http://www.w3.org/2000/svg" xmlns:xlink="http://www.w3.org/1999/xlink" x="0px" y="0px" width="256px"
	 height="512px" viewBox="0 0 256 512" style="enable-background:new 0 0 256 512;" xml:space="preserve">
	<path d="M256,512H0c0-12.852,10.422-23.273,23.281-23.273H112V383.594C58.391,379.484,16,334.641,16,280v-96c0-4.422,3.578-8,8-8
		s8,3.578,8,8v96c0,48.523,39.469,88,88,88h16c48.531,0,88-39.477,88-88v-96c0-4.422,3.578-8,8-8s8,3.578,8,8v96
		c0,54.641-42.391,99.484-96,103.594v105.133h88.719C245.578,488.727,256,499.148,256,512z M48,240V80c0-44,36-80,80-80s80,36,80,80
		v160H48z M176,192c0-8.844-7.156-16-16-16s-16,7.156-16,16s7.156,16,16,16S176,200.844,176,192z M176,144c0-8.844-7.156-16-16-16
		s-16,7.156-16,16s7.156,16,16,16S176,152.844,176,144z M144,96c0,8.844,7.156,16,16,16s16-7.156,16-16s-7.156-16-16-16
		S144,87.156,144,96z M112,48c0,8.844,7.156,16,16,16s16-7.156,16-16s-7.156-16-16-16S112,39.156,112,48z M80,96
		c0,8.844,7.156,16,16,16s16-7.156,16-16s-7.156-16-16-16S80,87.156,80,96z M80,144c0,8.844,7.156,16,16,16s16-7.156,16-16
		s-7.156-16-16-16S80,135.156,80,144z M80,192c0,8.844,7.156,16,16,16s16-7.156,16-16s-7.156-16-16-16S80,183.156,80,192z M48,256
		v16c0,44,36,80,80,80s80-36,80-80v-16H48z"/>
</svg>
