<svg version="1.1" xmlns="http://www.w3.org/2000/svg" xmlns:xlink="http://www.w3.org/1999/xlink" x="0px" y="0px" width="384px"
	 height="512px" viewBox="0 0 384 512" style="enable-background:new 0 0 384 512;" xml:space="preserve">
<path d="M192,256c35.375,0,64-28.656,64-64V64c0-35.344-28.625-64-64-64s-64,28.656-64,64v128C128,227.344,156.625,256,192,256z"
				/>
<path d="M256,448h-32v-67.25c90.625-15.312,160-93.844,160-188.75v-31c0-17.688-14.312-32-32-32s-32,14.312-32,32v31
			c0,70.594-57.375,128-128,128S64,262.594,64,192v-31c0-17.688-14.312-32-32-32S0,143.312,0,161v31
			c0,94.906,69.375,173.438,160,188.75V448h-32c-35.375,0-64,28.656-64,64h256C320,476.656,291.375,448,256,448z"/>
</svg>
